<svg width="244" height="65" viewBox="0 0 244 65" fill="" xmlns="http://www.w3.org/2000/svg">
<rect x="9.47432" y="3.3418" width="37.4827" height="51.6428" rx="4.16474" transform="rotate(-4.63313 9.47432 3.3418)" fill="white"/>
<path fill-rule="evenodd" clip-rule="evenodd" d="M8.26062 7.99693L3.29328 9.57327C1.32762 10.1971 0.239821 12.2962 0.863605 14.2619L11.4793 47.7138L8.26062 7.99693ZM14.1606 53.2954C15.0614 53.8695 16.2008 54.0549 17.2986 53.7066L18.0766 53.4597L16.1361 53.6169C15.4366 53.6736 14.7635 53.554 14.1606 53.2954Z" fill="white"/>
<path fill-rule="evenodd" clip-rule="evenodd" d="M48.8813 4.57649L53.2887 5.31703C55.3225 5.65874 56.7606 7.59422 56.5008 9.64005L52.1 44.2942L48.8813 4.57649ZM50.6805 50.0017C49.8932 50.833 48.7191 51.2642 47.4803 51.056L47.0468 50.9832L48.4544 50.8691C49.2971 50.8008 50.0608 50.4862 50.6805 50.0017Z" fill="white"/>
<circle cx="44.8185" cy="58.8386" r="3.98903" fill="white"/>
<circle cx="23.8761" cy="60.8333" r="3.98903" fill="white"/>
<path d="M68.8885 51.962L69.1192 17.7939L78.3953 17.8565L78.302 31.6706L78.7692 31.6738L89.1395 17.9291L99.9506 18.002L88.3028 33.1396L99.9868 52.172L88.9089 52.0972L81.3209 39.2323L78.2241 43.2157L78.1646 52.0247L68.8885 51.962ZM109.744 52.6383C108.109 52.6272 106.665 52.3505 105.412 51.8082C104.17 51.2548 103.196 50.4251 102.492 49.3192C101.788 48.2132 101.441 46.8094 101.453 45.1077C101.462 43.7062 101.709 42.5122 102.194 41.5255C102.679 40.5277 103.352 39.7147 104.213 39.0865C105.074 38.4584 106.072 37.9812 107.209 37.6552C108.357 37.3293 109.593 37.1207 110.917 37.0296C112.353 36.928 113.505 36.8023 114.373 36.6525C115.253 36.4916 115.889 36.2678 116.28 35.9813C116.671 35.6836 116.869 35.2901 116.872 34.8007L116.872 34.734C116.877 34.0666 116.625 33.5532 116.115 33.1939C115.606 32.8345 114.951 32.6521 114.15 32.6467C113.272 32.6408 112.553 32.8306 111.994 33.2161C111.447 33.5906 111.115 34.1723 110.998 34.9612L102.523 34.904C102.644 33.3476 103.149 31.9162 104.037 30.6097C104.935 29.2921 106.238 28.2442 107.945 27.466C109.652 26.6767 111.779 26.2906 114.327 26.3078C116.162 26.3202 117.806 26.5482 119.26 26.9918C120.715 27.4243 121.951 28.0277 122.969 28.8021C123.987 29.5653 124.76 30.4604 125.287 31.4872C125.825 32.5031 126.09 33.606 126.082 34.7961L125.963 52.3473L117.355 52.2892L117.379 48.6855L117.179 48.6842C116.661 49.6373 116.032 50.4061 115.294 50.9906C114.567 51.5752 113.736 51.9978 112.8 52.2585C111.875 52.5192 110.856 52.6458 109.744 52.6383ZM112.786 46.8526C113.487 46.8574 114.144 46.7172 114.758 46.4321C115.383 46.1472 115.892 45.7335 116.285 45.1911C116.678 44.6487 116.877 43.9883 116.882 43.2097L116.896 41.0742C116.651 41.1726 116.389 41.2654 116.11 41.3525C115.843 41.4397 115.553 41.5212 115.241 41.5969C114.94 41.6727 114.617 41.7429 114.272 41.8073C113.938 41.8718 113.587 41.9306 113.22 41.9837C112.507 42.0901 111.922 42.2697 111.464 42.5224C111.018 42.7641 110.682 43.0677 110.457 43.4333C110.243 43.7878 110.135 44.1875 110.132 44.6324C110.127 45.3442 110.374 45.8909 110.872 46.2724C111.369 46.654 112.008 46.8474 112.786 46.8526ZM130.364 52.377L130.537 26.7509L139.479 26.8113L139.446 31.6829L139.713 31.6847C140.192 29.886 140.941 28.573 141.959 27.7457C142.988 26.9184 144.186 26.5094 145.554 26.5186C145.955 26.5213 146.349 26.5574 146.738 26.6267C147.138 26.685 147.521 26.771 147.887 26.8847L147.834 34.7427C147.379 34.584 146.819 34.4634 146.152 34.381C145.485 34.2987 144.912 34.2559 144.434 34.2526C143.533 34.2465 142.72 34.4468 141.994 34.8535C141.28 35.2491 140.714 35.8125 140.298 36.5438C139.881 37.264 139.67 38.1135 139.663 39.0923L139.573 52.4392L130.364 52.377ZM167.245 26.9987L167.2 33.6722L150.316 33.5582L150.361 26.8848L167.245 26.9987ZM153.672 20.7672L162.882 20.8294L162.723 44.3534C162.721 44.7093 162.78 45.01 162.9 45.2555C163.021 45.4899 163.209 45.6692 163.464 45.7932C163.719 45.9062 164.047 45.964 164.447 45.9667C164.725 45.9686 165.048 45.9374 165.416 45.8731C165.794 45.809 166.073 45.7552 166.251 45.7119L167.542 52.1942C167.13 52.3138 166.539 52.46 165.77 52.6327C165.013 52.8056 164.111 52.9163 163.065 52.9648C160.951 53.0618 159.179 52.8329 157.748 52.2783C156.317 51.7124 155.244 50.8321 154.529 49.6371C153.814 48.4421 153.473 46.9493 153.508 45.1588L153.672 20.7672ZM180.82 18.548L180.59 52.7161L171.38 52.6539L171.611 18.4858L180.82 18.548ZM197.625 53.2982C194.844 53.2795 192.468 52.7128 190.495 51.5984C188.523 50.4728 187.015 48.9165 185.972 46.9296C184.929 44.9315 184.416 42.62 184.434 39.9951C184.452 37.3702 184.995 35.0715 186.065 33.0988C187.135 31.115 188.664 29.5792 190.651 28.4915C192.639 27.3926 195.023 26.8526 197.803 26.8713C200.584 26.8901 202.96 27.4623 204.933 28.5879C206.905 29.7024 208.413 31.2587 209.456 33.2567C210.499 35.2436 211.012 37.5495 210.994 40.1744C210.976 42.7993 210.433 45.1037 209.363 47.0875C208.293 49.0601 206.764 50.5959 204.777 51.6948C202.789 52.7825 200.405 53.317 197.625 53.2982ZM197.737 46.4918C198.516 46.497 199.191 46.2402 199.761 45.7213C200.332 45.2023 200.777 44.4601 201.095 43.4945C201.413 42.529 201.576 41.3789 201.585 40.0442C201.594 38.6984 201.446 37.5461 201.141 36.5875C200.836 35.6178 200.402 34.8696 199.838 34.343C199.275 33.8164 198.603 33.5505 197.825 33.5452C197.002 33.5397 196.294 33.7963 195.701 34.3151C195.108 34.8338 194.652 35.576 194.334 36.5416C194.016 37.496 193.853 38.6461 193.844 39.9919C193.835 41.3266 193.983 42.4788 194.288 43.4486C194.593 44.4183 195.038 45.1666 195.624 45.6933C196.21 46.2201 196.914 46.4862 197.737 46.4918ZM226.923 63.173C224.353 63.1556 222.154 62.7737 220.323 62.0273C218.504 61.292 217.093 60.2814 216.089 58.9955C215.097 57.7208 214.545 56.2599 214.434 54.613L223.31 54.6729C223.395 55.2185 223.614 55.6593 223.968 55.9954C224.322 56.3315 224.776 56.5737 225.331 56.7221C225.897 56.8816 226.531 56.9637 227.232 56.9685C228.422 56.9765 229.408 56.694 230.19 56.1208C230.984 55.5478 231.386 54.505 231.396 52.9923L231.425 48.6546L231.158 48.6528C230.819 49.5181 230.302 50.2543 229.609 50.8613C228.915 51.4573 228.083 51.9133 227.113 52.2293C226.144 52.5342 225.08 52.6827 223.924 52.6749C222.1 52.6626 220.423 52.2286 218.894 51.373C217.376 50.5174 216.161 49.1688 215.25 47.3274C214.351 45.4861 213.911 43.0861 213.931 40.1275C213.952 37.0355 214.447 34.525 215.417 32.5962C216.397 30.6674 217.653 29.2577 219.183 28.3671C220.723 27.4765 222.339 27.037 224.03 27.0484C225.298 27.0569 226.409 27.2869 227.362 27.7382C228.316 28.1785 229.113 28.7678 229.753 29.5062C230.393 30.2336 230.877 31.0321 231.205 31.9019L231.405 31.9033L231.435 27.4321L240.645 27.4942L240.472 53.0536C240.457 55.2225 239.883 57.0594 238.75 58.5645C237.627 60.0808 236.051 61.2325 234.021 62.0196C231.992 62.8068 229.625 63.1912 226.923 63.173ZM227.371 46.1579C228.217 46.1636 228.941 45.9349 229.545 45.4718C230.16 44.9977 230.632 44.3224 230.96 43.4459C231.3 42.5583 231.474 41.4917 231.482 40.246C231.491 38.978 231.331 37.8925 231.004 36.9893C230.687 36.0751 230.225 35.3768 229.616 34.8944C229.019 34.401 228.298 34.1514 227.452 34.1457C226.607 34.14 225.882 34.3798 225.279 34.8651C224.686 35.3394 224.225 36.0315 223.896 36.9413C223.579 37.8401 223.416 38.9235 223.407 40.1915C223.399 41.4595 223.547 42.5394 223.853 43.4313C224.169 44.3121 224.621 44.9881 225.207 45.4592C225.805 45.9193 226.526 46.1522 227.371 46.1579Z" fill="white"/>
</svg>
